<mxfile host="app.diagrams.net" agent="Mozilla/5.0 (X11; Linux x86_64; rv:135.0) Gecko/20100101 Firefox/135.0" version="26.1.1">
  <diagram name="Page-1" id="fFQ6WQgZWspTpNPEQZPx">
    <mxGraphModel dx="584" dy="789" grid="1" gridSize="10" guides="1" tooltips="1" connect="1" arrows="1" fold="1" page="1" pageScale="1" pageWidth="850" pageHeight="1100" math="0" shadow="0">
      <root>
        <mxCell id="0" />
        <mxCell id="1" parent="0" />
        <mxCell id="LJ91YOR7zUgHexyTRzu9-49" value="VPC" style="points=[[0,0],[0.25,0],[0.5,0],[0.75,0],[1,0],[1,0.25],[1,0.5],[1,0.75],[1,1],[0.75,1],[0.5,1],[0.25,1],[0,1],[0,0.75],[0,0.5],[0,0.25]];outlineConnect=0;gradientColor=none;html=1;whiteSpace=wrap;fontSize=12;fontStyle=0;container=1;pointerEvents=0;collapsible=0;recursiveResize=0;shape=mxgraph.aws4.group;grIcon=mxgraph.aws4.group_vpc2;strokeColor=#8C4FFF;fillColor=none;verticalAlign=top;align=left;spacingLeft=30;fontColor=#AAB7B8;dashed=0;" parent="1" vertex="1">
          <mxGeometry x="1160" y="400" width="580" height="210" as="geometry" />
        </mxCell>
        <mxCell id="LJ91YOR7zUgHexyTRzu9-115" style="edgeStyle=orthogonalEdgeStyle;rounded=0;orthogonalLoop=1;jettySize=auto;html=1;" parent="LJ91YOR7zUgHexyTRzu9-49" source="LJ91YOR7zUgHexyTRzu9-52" target="LJ91YOR7zUgHexyTRzu9-53" edge="1">
          <mxGeometry relative="1" as="geometry" />
        </mxCell>
        <mxCell id="LJ91YOR7zUgHexyTRzu9-52" value="TGW private subnet" style="points=[[0,0],[0.25,0],[0.5,0],[0.75,0],[1,0],[1,0.25],[1,0.5],[1,0.75],[1,1],[0.75,1],[0.5,1],[0.25,1],[0,1],[0,0.75],[0,0.5],[0,0.25]];outlineConnect=0;gradientColor=none;html=1;whiteSpace=wrap;fontSize=12;fontStyle=0;container=1;pointerEvents=0;collapsible=0;recursiveResize=0;shape=mxgraph.aws4.group;grIcon=mxgraph.aws4.group_security_group;grStroke=0;strokeColor=#00A4A6;fillColor=#E6F6F7;verticalAlign=top;align=left;spacingLeft=30;fontColor=#147EBA;dashed=0;" parent="LJ91YOR7zUgHexyTRzu9-49" vertex="1">
          <mxGeometry x="50" y="30" width="290" height="160" as="geometry" />
        </mxCell>
        <mxCell id="LJ91YOR7zUgHexyTRzu9-69" value="&lt;div&gt;Route table&lt;/div&gt;&lt;div&gt;(to NAT gateway)&lt;/div&gt;" style="sketch=0;outlineConnect=0;fontColor=#232F3E;gradientColor=none;fillColor=#8C4FFF;strokeColor=none;dashed=0;verticalLabelPosition=bottom;verticalAlign=top;align=center;html=1;fontSize=12;fontStyle=0;aspect=fixed;pointerEvents=1;shape=mxgraph.aws4.route_table;" parent="LJ91YOR7zUgHexyTRzu9-52" vertex="1">
          <mxGeometry x="173" y="41" width="78" height="76" as="geometry" />
        </mxCell>
        <mxCell id="LJ91YOR7zUgHexyTRzu9-109" value="&lt;div&gt;Transit gateway&lt;/div&gt;&lt;div&gt;network interface&lt;/div&gt;" style="sketch=0;outlineConnect=0;fontColor=#232F3E;gradientColor=none;fillColor=#8C4FFF;strokeColor=none;dashed=0;verticalLabelPosition=bottom;verticalAlign=top;align=center;html=1;fontSize=12;fontStyle=0;aspect=fixed;pointerEvents=1;shape=mxgraph.aws4.elastic_network_interface;" parent="LJ91YOR7zUgHexyTRzu9-52" vertex="1">
          <mxGeometry x="45" y="40" width="78" height="78" as="geometry" />
        </mxCell>
        <mxCell id="LJ91YOR7zUgHexyTRzu9-53" value="NGW public subnet" style="points=[[0,0],[0.25,0],[0.5,0],[0.75,0],[1,0],[1,0.25],[1,0.5],[1,0.75],[1,1],[0.75,1],[0.5,1],[0.25,1],[0,1],[0,0.75],[0,0.5],[0,0.25]];outlineConnect=0;gradientColor=none;html=1;whiteSpace=wrap;fontSize=12;fontStyle=0;container=1;pointerEvents=0;collapsible=0;recursiveResize=0;shape=mxgraph.aws4.group;grIcon=mxgraph.aws4.group_security_group;grStroke=0;strokeColor=#7AA116;fillColor=#F2F6E8;verticalAlign=top;align=left;spacingLeft=30;fontColor=#248814;dashed=0;" parent="LJ91YOR7zUgHexyTRzu9-49" vertex="1">
          <mxGeometry x="400" y="30" width="160" height="160" as="geometry" />
        </mxCell>
        <mxCell id="LJ91YOR7zUgHexyTRzu9-70" value="&lt;div&gt;NAT&lt;/div&gt;&lt;div&gt;gateway&lt;/div&gt;" style="sketch=0;outlineConnect=0;fontColor=#232F3E;gradientColor=none;fillColor=#8C4FFF;strokeColor=none;dashed=0;verticalLabelPosition=bottom;verticalAlign=top;align=center;html=1;fontSize=12;fontStyle=0;aspect=fixed;pointerEvents=1;shape=mxgraph.aws4.nat_gateway;" parent="LJ91YOR7zUgHexyTRzu9-53" vertex="1">
          <mxGeometry x="41" y="41" width="78" height="78" as="geometry" />
        </mxCell>
        <mxCell id="LJ91YOR7zUgHexyTRzu9-149" value="Hub" style="text;html=1;align=center;verticalAlign=middle;whiteSpace=wrap;rounded=0;" parent="LJ91YOR7zUgHexyTRzu9-49" vertex="1">
          <mxGeometry x="165" width="60" height="30" as="geometry" />
        </mxCell>
        <mxCell id="Brfyr_elFCpzcNNpJkE2-19" value="" style="shape=table;startSize=0;container=1;collapsible=0;childLayout=tableLayout;" parent="1" vertex="1">
          <mxGeometry x="1490" y="170" width="230" height="160" as="geometry" />
        </mxCell>
        <mxCell id="Brfyr_elFCpzcNNpJkE2-20" value="" style="shape=tableRow;horizontal=0;startSize=0;swimlaneHead=0;swimlaneBody=0;strokeColor=inherit;top=0;left=0;bottom=0;right=0;collapsible=0;dropTarget=0;fillColor=none;points=[[0,0.5],[1,0.5]];portConstraint=eastwest;" parent="Brfyr_elFCpzcNNpJkE2-19" vertex="1">
          <mxGeometry width="230" height="40" as="geometry" />
        </mxCell>
        <mxCell id="Brfyr_elFCpzcNNpJkE2-21" value="Destination" style="shape=partialRectangle;html=1;whiteSpace=wrap;connectable=0;strokeColor=#666666;overflow=hidden;fillColor=#f5f5f5;top=0;left=0;bottom=0;right=1;pointerEvents=1;align=center;fontColor=#333333;" parent="Brfyr_elFCpzcNNpJkE2-20" vertex="1">
          <mxGeometry width="115" height="40" as="geometry">
            <mxRectangle width="115" height="40" as="alternateBounds" />
          </mxGeometry>
        </mxCell>
        <mxCell id="Brfyr_elFCpzcNNpJkE2-22" value="Target" style="shape=partialRectangle;html=1;whiteSpace=wrap;connectable=0;strokeColor=#666666;overflow=hidden;fillColor=#f5f5f5;top=0;left=1;bottom=0;right=0;pointerEvents=1;fontColor=#333333;" parent="Brfyr_elFCpzcNNpJkE2-20" vertex="1">
          <mxGeometry x="115" width="115" height="40" as="geometry">
            <mxRectangle width="115" height="40" as="alternateBounds" />
          </mxGeometry>
        </mxCell>
        <mxCell id="Brfyr_elFCpzcNNpJkE2-26" style="shape=tableRow;horizontal=0;startSize=0;swimlaneHead=0;swimlaneBody=0;strokeColor=inherit;top=0;left=0;bottom=0;right=0;collapsible=0;dropTarget=0;fillColor=none;points=[[0,0.5],[1,0.5]];portConstraint=eastwest;" parent="Brfyr_elFCpzcNNpJkE2-19" vertex="1">
          <mxGeometry y="40" width="230" height="40" as="geometry" />
        </mxCell>
        <mxCell id="Brfyr_elFCpzcNNpJkE2-27" value="Hub VPC" style="shape=partialRectangle;html=1;whiteSpace=wrap;connectable=0;strokeColor=inherit;overflow=hidden;fillColor=none;top=0;left=0;bottom=0;right=0;pointerEvents=1;" parent="Brfyr_elFCpzcNNpJkE2-26" vertex="1">
          <mxGeometry width="115" height="40" as="geometry">
            <mxRectangle width="115" height="40" as="alternateBounds" />
          </mxGeometry>
        </mxCell>
        <mxCell id="Brfyr_elFCpzcNNpJkE2-28" value="local" style="shape=partialRectangle;html=1;whiteSpace=wrap;connectable=0;strokeColor=inherit;overflow=hidden;fillColor=none;top=0;left=0;bottom=0;right=0;pointerEvents=1;" parent="Brfyr_elFCpzcNNpJkE2-26" vertex="1">
          <mxGeometry x="115" width="115" height="40" as="geometry">
            <mxRectangle width="115" height="40" as="alternateBounds" />
          </mxGeometry>
        </mxCell>
        <mxCell id="Brfyr_elFCpzcNNpJkE2-23" value="" style="shape=tableRow;horizontal=0;startSize=0;swimlaneHead=0;swimlaneBody=0;strokeColor=inherit;top=0;left=0;bottom=0;right=0;collapsible=0;dropTarget=0;fillColor=none;points=[[0,0.5],[1,0.5]];portConstraint=eastwest;" parent="Brfyr_elFCpzcNNpJkE2-19" vertex="1">
          <mxGeometry y="80" width="230" height="40" as="geometry" />
        </mxCell>
        <mxCell id="Brfyr_elFCpzcNNpJkE2-24" value="0.0.0.0/0" style="shape=partialRectangle;html=1;whiteSpace=wrap;connectable=0;strokeColor=#9673a6;overflow=hidden;fillColor=#e1d5e7;top=0;left=0;bottom=0;right=0;pointerEvents=1;" parent="Brfyr_elFCpzcNNpJkE2-23" vertex="1">
          <mxGeometry width="115" height="40" as="geometry">
            <mxRectangle width="115" height="40" as="alternateBounds" />
          </mxGeometry>
        </mxCell>
        <mxCell id="Brfyr_elFCpzcNNpJkE2-25" value="nat-id" style="shape=partialRectangle;html=1;whiteSpace=wrap;connectable=0;strokeColor=#9673a6;overflow=hidden;fillColor=#e1d5e7;top=0;left=0;bottom=0;right=0;pointerEvents=1;" parent="Brfyr_elFCpzcNNpJkE2-23" vertex="1">
          <mxGeometry x="115" width="115" height="40" as="geometry">
            <mxRectangle width="115" height="40" as="alternateBounds" />
          </mxGeometry>
        </mxCell>
        <mxCell id="Brfyr_elFCpzcNNpJkE2-29" style="shape=tableRow;horizontal=0;startSize=0;swimlaneHead=0;swimlaneBody=0;strokeColor=inherit;top=0;left=0;bottom=0;right=0;collapsible=0;dropTarget=0;fillColor=none;points=[[0,0.5],[1,0.5]];portConstraint=eastwest;" parent="Brfyr_elFCpzcNNpJkE2-19" vertex="1">
          <mxGeometry y="120" width="230" height="40" as="geometry" />
        </mxCell>
        <mxCell id="Brfyr_elFCpzcNNpJkE2-30" value="172.16.0.0/12" style="shape=partialRectangle;html=1;whiteSpace=wrap;connectable=0;strokeColor=inherit;overflow=hidden;fillColor=none;top=0;left=0;bottom=0;right=0;pointerEvents=1;" parent="Brfyr_elFCpzcNNpJkE2-29" vertex="1">
          <mxGeometry width="115" height="40" as="geometry">
            <mxRectangle width="115" height="40" as="alternateBounds" />
          </mxGeometry>
        </mxCell>
        <mxCell id="Brfyr_elFCpzcNNpJkE2-31" value="tgw-id " style="shape=partialRectangle;html=1;whiteSpace=wrap;connectable=0;strokeColor=inherit;overflow=hidden;fillColor=none;top=0;left=0;bottom=0;right=0;pointerEvents=1;" parent="Brfyr_elFCpzcNNpJkE2-29" vertex="1">
          <mxGeometry x="115" width="115" height="40" as="geometry">
            <mxRectangle width="115" height="40" as="alternateBounds" />
          </mxGeometry>
        </mxCell>
        <mxCell id="Brfyr_elFCpzcNNpJkE2-32" style="edgeStyle=orthogonalEdgeStyle;rounded=0;orthogonalLoop=1;jettySize=auto;html=1;dashed=1;strokeColor=light-dark(#613583, #ededed);" parent="1" source="LJ91YOR7zUgHexyTRzu9-69" target="Brfyr_elFCpzcNNpJkE2-20" edge="1">
          <mxGeometry relative="1" as="geometry">
            <Array as="points">
              <mxPoint x="1422" y="190" />
            </Array>
          </mxGeometry>
        </mxCell>
        <mxCell id="OHm4fJjBag7sPpZQdGy7-1" value="" style="shape=flexArrow;endArrow=classic;html=1;rounded=0;width=44;endSize=12.902857142857142;strokeColor=light-dark(#613583, #ededed);fontColor=light-dark(#613583, #ededed);" edge="1" parent="1">
          <mxGeometry width="50" height="50" relative="1" as="geometry">
            <mxPoint x="1140" y="650" as="sourcePoint" />
            <mxPoint x="1800" y="650" as="targetPoint" />
          </mxGeometry>
        </mxCell>
        <mxCell id="OHm4fJjBag7sPpZQdGy7-2" value="&lt;font style=&quot;font-size: 15px;&quot;&gt;All traffic routed to the internet (DESTINATION) through the NAT gateway (TARGET)&lt;/font&gt;" style="edgeLabel;html=1;align=center;verticalAlign=middle;resizable=0;points=[];fontColor=light-dark(#613583, #ededed);" vertex="1" connectable="0" parent="OHm4fJjBag7sPpZQdGy7-1">
          <mxGeometry x="0.1673" y="4" relative="1" as="geometry">
            <mxPoint x="-70" y="4" as="offset" />
          </mxGeometry>
        </mxCell>
        <mxCell id="OHm4fJjBag7sPpZQdGy7-5" style="edgeStyle=orthogonalEdgeStyle;rounded=0;orthogonalLoop=1;jettySize=auto;html=1;startArrow=classic;startFill=1;" edge="1" parent="1" source="OHm4fJjBag7sPpZQdGy7-3" target="OHm4fJjBag7sPpZQdGy7-4">
          <mxGeometry relative="1" as="geometry" />
        </mxCell>
        <mxCell id="OHm4fJjBag7sPpZQdGy7-3" value="Transit gateway" style="sketch=0;points=[[0,0,0],[0.25,0,0],[0.5,0,0],[0.75,0,0],[1,0,0],[0,1,0],[0.25,1,0],[0.5,1,0],[0.75,1,0],[1,1,0],[0,0.25,0],[0,0.5,0],[0,0.75,0],[1,0.25,0],[1,0.5,0],[1,0.75,0]];outlineConnect=0;fontColor=#232F3E;fillColor=#8C4FFF;strokeColor=#ffffff;dashed=0;verticalLabelPosition=bottom;verticalAlign=top;align=center;html=1;fontSize=12;fontStyle=0;aspect=fixed;shape=mxgraph.aws4.resourceIcon;resIcon=mxgraph.aws4.transit_gateway;" vertex="1" parent="1">
          <mxGeometry x="870" y="470" width="78" height="78" as="geometry" />
        </mxCell>
        <mxCell id="OHm4fJjBag7sPpZQdGy7-6" style="edgeStyle=orthogonalEdgeStyle;rounded=0;orthogonalLoop=1;jettySize=auto;html=1;startArrow=classic;startFill=1;" edge="1" parent="1" source="OHm4fJjBag7sPpZQdGy7-4" target="LJ91YOR7zUgHexyTRzu9-109">
          <mxGeometry relative="1" as="geometry" />
        </mxCell>
        <mxCell id="OHm4fJjBag7sPpZQdGy7-4" value="&lt;div&gt;Hub&lt;/div&gt;&lt;div&gt;transit gateway&lt;/div&gt;&lt;div&gt;attachment&lt;/div&gt;" style="sketch=0;outlineConnect=0;fontColor=#232F3E;gradientColor=none;fillColor=#8C4FFF;strokeColor=none;dashed=0;verticalLabelPosition=bottom;verticalAlign=top;align=center;html=1;fontSize=12;fontStyle=0;aspect=fixed;pointerEvents=1;shape=mxgraph.aws4.transit_gateway_attachment;" vertex="1" parent="1">
          <mxGeometry x="1020" y="470" width="78" height="78" as="geometry" />
        </mxCell>
      </root>
    </mxGraphModel>
  </diagram>
</mxfile>
